<svg width="24" height="24" viewBox="0 0 24 24" fill="none" xmlns="http://www.w3.org/2000/svg">
<path d="M21 12C20.9999 10.2801 20.507 8.59616 19.5796 7.14767C18.6522 5.69919 17.3292 4.54676 15.7672 3.82684C14.2051 3.10693 12.4695 2.84966 10.7659 3.08551C9.06217 3.32136 7.46174 4.04045 6.15404 5.15763C4.84634 6.27482 3.88615 7.74332 3.38713 9.38927C2.88812 11.0352 2.87118 12.7897 3.33833 14.445C3.80548 16.1003 4.73715 17.587 6.02304 18.7292C7.30893 19.8715 8.89518 20.6213 10.594 20.89V14.602H8.309V12H10.594V10.017C10.594 7.76199 11.937 6.51599 13.994 6.51599C14.978 6.51599 16.008 6.69099 16.008 6.69099V8.90599H14.873C13.755 8.90599 13.406 9.59999 13.406 10.312V12H15.902L15.503 14.602H13.406V20.891C17.71 20.216 21 16.492 21 12Z" fill="#121117"/>
</svg>
