<svg width="24" height="24" viewBox="0 0 24 24" fill="none" xmlns="http://www.w3.org/2000/svg">
<path d="M21.0006 12.3922C21.0006 11.7422 20.9426 11.1152 20.8336 10.5142H12.1836V14.0702H17.1266C17.0213 14.6315 16.8036 15.1657 16.4865 15.6407C16.1695 16.1157 15.7596 16.5217 15.2816 16.8342V19.1472H18.2616C19.9986 17.5432 21.0006 15.1882 21.0006 12.3922Z" fill="#4285F4"/>
<path d="M12.1834 21.367C14.6634 21.367 16.7414 20.549 18.2604 19.147L15.2804 16.834C14.4624 17.384 13.4184 17.719 12.1824 17.719C9.79537 17.719 7.76638 16.108 7.04037 13.937H3.98438V16.307C5.49538 19.305 8.59338 21.367 12.1834 21.367Z" fill="#34A853"/>
<path d="M7.04 13.9279C6.84963 13.366 6.75137 12.7771 6.749 12.1839C6.749 11.5739 6.857 10.9899 7.041 10.4389V8.06787H3.985C3.33668 9.343 2.99916 10.7534 3 12.1839C3 13.6699 3.359 15.0639 3.985 16.2999L6.365 14.4459L7.04 13.9279Z" fill="#FBBC05"/>
<path d="M12.1834 6.657C13.5354 6.657 14.7374 7.124 15.6974 8.026L18.3274 5.396C16.7334 3.91 14.6624 3 12.1834 3C8.59338 3 5.49538 5.062 3.98438 8.068L7.04037 10.438C7.76638 8.268 9.79538 6.657 12.1834 6.657Z" fill="#EA4335"/>
</svg>
