<svg width="42" height="43" viewBox="0 0 42 43" fill="none" xmlns="http://www.w3.org/2000/svg">
<path d="M42.0027 21.9152C42.0027 20.3985 41.8674 18.9355 41.613 17.5332H21.4297V25.8305H32.9634C32.7177 27.1403 32.2097 28.3868 31.4699 29.4951C30.7301 30.6034 29.7737 31.5507 28.6584 32.2799V37.6769H35.6117C39.6647 33.9342 42.0027 28.4392 42.0027 21.9152Z" fill="#4285F4"/>
<path d="M21.4279 42.8562C27.2145 42.8562 32.0632 40.9475 35.6075 37.6762L28.6542 32.2792C26.7455 33.5625 24.3095 34.3442 21.4255 34.3442C15.8559 34.3442 11.1215 30.5852 9.42754 25.5195H2.29688V31.0495C5.82254 38.0449 13.0512 42.8562 21.4279 42.8562Z" fill="#34A853"/>
<path d="M9.42667 25.4995C8.98248 24.1885 8.75319 22.8143 8.74767 21.4302C8.74767 20.0068 8.99967 18.6442 9.429 17.3585V11.8262H2.29834C0.785596 14.8015 -0.00195368 18.0924 3.63951e-06 21.4302C3.63951e-06 24.8975 0.83767 28.1502 2.29834 31.0342L7.85167 26.7082L9.42667 25.4995Z" fill="#FBBC05"/>
<path d="M21.4279 8.533C24.5825 8.533 27.3872 9.62267 29.6272 11.7273L35.7639 5.59067C32.0445 2.12333 27.2122 0 21.4279 0C13.0512 0 5.82254 4.81133 2.29688 11.8253L9.42754 17.3553C11.1215 12.292 15.8559 8.533 21.4279 8.533Z" fill="#EA4335"/>
</svg>
