<svg width="24" height="24" viewBox="0 0 24 24" fill="none" xmlns="http://www.w3.org/2000/svg">
<path d="M21 3H19.5V2.25C19.5 2.05109 19.421 1.86032 19.2803 1.71967C19.1397 1.57902 18.9489 1.5 18.75 1.5C18.5511 1.5 18.3603 1.57902 18.2197 1.71967C18.079 1.86032 18 2.05109 18 2.25V3H15V2.25C15 2.05109 14.921 1.86032 14.7803 1.71967C14.6397 1.57902 14.4489 1.5 14.25 1.5C14.0511 1.5 13.8603 1.57902 13.7197 1.71967C13.579 1.86032 13.5 2.05109 13.5 2.25V3H10.5V2.25C10.5 2.05109 10.421 1.86032 10.2803 1.71967C10.1397 1.57902 9.94891 1.5 9.75 1.5C9.55109 1.5 9.36032 1.57902 9.21967 1.71967C9.07902 1.86032 9 2.05109 9 2.25V3H6V2.25C6 2.05109 5.92098 1.86032 5.78033 1.71967C5.63968 1.57902 5.44891 1.5 5.25 1.5C5.05109 1.5 4.86032 1.57902 4.71967 1.71967C4.57902 1.86032 4.5 2.05109 4.5 2.25V3H3C2.60218 3 2.22064 3.15804 1.93934 3.43934C1.65804 3.72064 1.5 4.10218 1.5 4.5V7.5H22.5V4.5C22.5 4.10218 22.342 3.72064 22.0607 3.43934C21.7794 3.15804 21.3978 3 21 3ZM1.5 21C1.5 21.3978 1.65804 21.7794 1.93934 22.0607C2.22064 22.342 2.60218 22.5 3 22.5H21C21.3978 22.5 21.7794 22.342 22.0607 22.0607C22.342 21.7794 22.5 21.3978 22.5 21V9H1.5V21ZM6.2175 15.2175C6.28722 15.1472 6.37017 15.0914 6.46157 15.0533C6.55296 15.0153 6.65099 14.9957 6.75 14.9957C6.84901 14.9957 6.94704 15.0153 7.03843 15.0533C7.12983 15.0914 7.21278 15.1472 7.2825 15.2175L7.515 15.4575C7.57904 14.4862 7.9563 13.5619 8.59018 12.8231C9.22407 12.0844 10.0804 11.5712 11.0307 11.3604C11.981 11.1496 12.974 11.2526 13.8608 11.6539C14.7476 12.0553 15.4804 12.7334 15.9491 13.5865C16.4179 14.4396 16.5974 15.4217 16.4607 16.3855C16.324 17.3492 15.8785 18.2427 15.191 18.9318C14.5035 19.6209 13.6111 20.0685 12.6476 20.2075C11.6842 20.3464 10.7017 20.1692 9.8475 19.7025C9.76083 19.6533 9.6847 19.5874 9.62347 19.5088C9.56224 19.4301 9.51711 19.3401 9.49064 19.244C9.46418 19.1479 9.4569 19.0475 9.46923 18.9486C9.48156 18.8497 9.51325 18.7542 9.5625 18.6675C9.61175 18.5808 9.67758 18.5047 9.75625 18.4435C9.83491 18.3822 9.92487 18.3371 10.021 18.3106C10.2151 18.2572 10.4225 18.283 10.5975 18.3825C11.0261 18.6223 11.5089 18.7488 12 18.75C12.7956 18.75 13.5587 18.4339 14.1213 17.8713C14.6839 17.3087 15 16.5456 15 15.75C15.0039 15.2487 14.8773 14.755 14.6325 14.3175C14.3243 13.7661 13.8499 13.326 13.2769 13.0601C12.7039 12.7941 12.0615 12.7158 11.4414 12.8363C10.8213 12.9569 10.2551 13.2701 9.82342 13.7313C9.39176 14.1925 9.11672 14.7783 9.0375 15.405L9.2175 15.2175C9.35873 15.0763 9.55027 14.9969 9.75 14.9969C9.94973 14.9969 10.1413 15.0763 10.2825 15.2175C10.4237 15.3587 10.5031 15.5503 10.5031 15.75C10.5031 15.9497 10.4237 16.1413 10.2825 16.2825L8.7825 17.7825C8.71278 17.8528 8.62983 17.9086 8.53843 17.9467C8.44704 17.9847 8.34901 18.0043 8.25 18.0043C8.15099 18.0043 8.05296 17.9847 7.96157 17.9467C7.87017 17.9086 7.78722 17.8528 7.7175 17.7825L6.2175 16.2825C6.1472 16.2128 6.09141 16.1298 6.05333 16.0384C6.01525 15.947 5.99565 15.849 5.99565 15.75C5.99565 15.651 6.01525 15.553 6.05333 15.4616C6.09141 15.3702 6.1472 15.2872 6.2175 15.2175Z" fill="black"/>
</svg>
