<svg width="48" height="32" viewBox="0 0 48 32" fill="none" xmlns="http://www.w3.org/2000/svg">
<path d="M0.5 4C0.5 3.07174 0.868749 2.1815 1.52513 1.52513C2.1815 0.868749 3.07174 0.5 4 0.5H44C44.9283 0.5 45.8185 0.868749 46.4749 1.52513C47.1312 2.1815 47.5 3.07174 47.5 4V28C47.5 28.9283 47.1312 29.8185 46.4749 30.4749C45.8185 31.1313 44.9283 31.5 44 31.5H4C3.07174 31.5 2.1815 31.1313 1.52513 30.4749C0.868749 29.8185 0.5 28.9283 0.5 28V4Z" fill="white"/>
<path d="M0.5 4C0.5 3.07174 0.868749 2.1815 1.52513 1.52513C2.1815 0.868749 3.07174 0.5 4 0.5H44C44.9283 0.5 45.8185 0.868749 46.4749 1.52513C47.1312 2.1815 47.5 3.07174 47.5 4V28C47.5 28.9283 47.1312 29.8185 46.4749 30.4749C45.8185 31.1313 44.9283 31.5 44 31.5H4C3.07174 31.5 2.1815 31.1313 1.52513 30.4749C0.868749 29.8185 0.5 28.9283 0.5 28V4Z" stroke="#DCDCE5"/>
<path d="M32.6267 10.5071C31.7459 10.1677 30.8095 9.9957 29.8657 10.0001C26.8257 10.0001 24.6857 11.6231 24.6717 13.9431C24.6467 15.6551 26.2047 16.6061 27.3697 17.1761C28.5597 17.7601 28.9657 18.1401 28.9657 18.6601C28.9537 19.4591 28.0027 19.8271 27.1167 19.8271C25.8877 19.8271 25.2297 19.6371 24.2287 19.1931L23.8227 19.0031L23.3927 21.6781C24.1147 22.0071 25.4447 22.2991 26.8257 22.3121C30.0557 22.3121 32.1577 20.7141 32.1827 18.2421C32.1957 16.8851 31.3727 15.8451 29.5997 14.9961C28.5227 14.4511 27.8637 14.0831 27.8637 13.5251C27.8757 13.0181 28.4207 12.4981 29.6367 12.4981C30.6367 12.4731 31.3727 12.7141 31.9297 12.9551L32.2077 13.0811L32.6267 10.5071ZM21.4677 22.1341H18.3887L20.3147 10.2161H23.3927L21.4677 22.1341Z" fill="#191F74"/>
<path fill-rule="evenodd" clip-rule="evenodd" d="M38.1351 10.2158H40.5151L42.9991 22.1338H40.1491C40.1491 22.1338 39.8691 20.7638 39.7821 20.3458H35.8291L35.1831 22.1338H31.9531L36.5261 11.2038C36.8421 10.4308 37.4001 10.2158 38.1351 10.2158ZM37.9451 14.5778C37.9451 14.5778 36.9691 17.2278 36.7151 17.9118H39.2751C39.1481 17.3158 38.5651 14.4628 38.5651 14.4628L38.3501 13.4368C38.2601 13.7008 38.1281 14.0638 38.0401 14.3098C37.9801 14.4758 37.9401 14.5878 37.9451 14.5778Z" fill="#191F74"/>
<path d="M15.817 10.2158L12.803 18.3428L12.473 16.6948L11.397 11.2178C11.219 10.4568 10.675 10.2408 10.003 10.2158H5.051L5 10.4558C6.208 10.7658 7.288 11.2118 8.235 11.7658L10.979 22.1218H14.234L19.072 10.2158H15.817Z" fill="#191F74"/>
</svg>
